<svg xmlns="http://www.w3.org/2000/svg" width="36" height="36" fill="none"><path fill="#FFF9F4" d="M33.75 17.902q.001-.115-.004-.267c-.003-.285-.01-.605-.017-.946a53 53 0 0 0-.155-2.88c-.105-1.268-.26-2.327-.47-3.121a4.9 4.9 0 0 0-3.457-3.463c-.995-.267-2.942-.432-5.684-.534-1.305-.05-2.7-.081-4.096-.099-.489-.007-.942-.01-1.35-.014h-1.034c-.408.004-.861.007-1.35.014-1.395.018-2.791.05-4.095.099-2.743.105-4.694.27-5.685.534a4.9 4.9 0 0 0-3.456 3.463c-.215.794-.366 1.853-.471 3.122a53 53 0 0 0-.155 2.88c-.01.34-.014.66-.017.945 0 .102-.004.19-.004.267v.197q-.001.115.004.267c.003.285.01.605.017.946.028.98.077 1.958.155 2.879.105 1.27.26 2.327.47 3.122a4.9 4.9 0 0 0 3.457 3.463c.991.267 2.942.432 5.685.534 1.304.05 2.7.081 4.095.099.489.007.942.01 1.35.014h1.034c.408-.004.861-.007 1.35-.014 1.395-.018 2.791-.05 4.095-.099 2.743-.105 4.694-.27 5.685-.534a4.89 4.89 0 0 0 3.456-3.463c.215-.795.366-1.853.471-3.122a53 53 0 0 0 .155-2.88c.01-.34.014-.66.017-.945 0-.102.004-.19.004-.267zm-2.531.183c0 .074 0 .154-.004.25q-.005.412-.017.903c-.025.935-.074 1.87-.148 2.739-.095 1.132-.229 2.06-.394 2.682a2.37 2.37 0 0 1-1.666 1.67c-.738.197-2.598.355-5.126.45a160 160 0 0 1-5.361.109h-1.006l-1.329-.01c-1.374-.018-2.749-.05-4.032-.1-2.528-.098-4.391-.252-5.126-.45a2.37 2.37 0 0 1-1.666-1.669c-.165-.622-.3-1.55-.394-2.682a51 51 0 0 1-.148-2.74c-.01-.326-.014-.632-.017-.903q-.002-.143-.004-.25v-.168q-.001-.11.004-.25.005-.412.017-.903c.025-.935.074-1.87.148-2.739.095-1.132.229-2.06.394-2.682a2.37 2.37 0 0 1 1.666-1.67c.738-.197 2.598-.355 5.126-.45a160 160 0 0 1 5.361-.11h1.006l1.329.011c1.374.018 2.749.05 4.032.099 2.528.098 4.391.253 5.126.45a2.37 2.37 0 0 1 1.666 1.67c.166.622.3 1.55.394 2.682.074.869.12 1.804.148 2.739.01.327.014.633.017.903q.002.144.004.25zM14.87 22.71l8.156-4.746-8.156-4.675z"/></svg>